<?xml version="1.0" encoding="UTF-8"?>
<svg id="Layer_2" data-name="Layer 2" xmlns="http://www.w3.org/2000/svg" viewBox="0 0 185.07 96.21">
  <defs>
    <style>
      .cls-1 {
        fill: #256734;
      }
    </style>
  </defs>
  <g id="Layer_1-2" data-name="Layer 1">
    <g>
      <path class="cls-1" d="m0,30.65h24.8c8.87,0,14.36,3.64,14.36,10.89v.48c0,5.93-2.97,9.66-9.35,10.38l.03.08c6.3.56,9.35,3.81,9.35,10.39v.78c0,2.69.28,5.32.87,7.87h-9.29c-.67-2.49-1.01-5.1-1.01-7.7v-1.04c0-4.73-2.18-6.8-7.42-6.8h-13.18v15.54H0V30.65Zm22.48,18.84c5.07,0,7.39-2.32,7.39-6.1v-.36c0-4.06-2.6-5.74-7.56-5.74h-13.16v12.21h13.32Z"/>
      <path class="cls-1" d="m71.55,67.35c-3.05,3.33-7.81,4.95-13.86,4.95-8.01,0-11.95-3.5-11.95-9.1v-.17c0-5.46,4.03-8.68,15.76-9.88l9.52-.98v-1.45c0-3.75-2.35-5.74-7.95-5.74-6.05,0-8.15,2.01-8.15,5.49v.81h-8.31v-.78c0-7.36,4.93-11.11,16.43-11.11s16.29,3.64,16.29,11.59v7.39c0,4.73.36,9.1,1.43,13.16h-8.51c-.28-1.32-.5-2.74-.7-4.17Zm-10.86-.76c3.92,0,7.53-1.04,10.52-2.86-.14-1.85-.2-3.67-.2-5.37v-1.2l-7.73.81c-6.63.7-8.87,2.1-8.87,4.56v.17c0,2.43,2.01,3.89,6.27,3.89Z"/>
      <path class="cls-1" d="m111,67.35c-3.05,3.33-7.81,4.95-13.86,4.95-8.01,0-11.95-3.5-11.95-9.1v-.17c0-5.46,4.03-8.68,15.76-9.88l9.52-.98v-1.45c0-3.75-2.35-5.74-7.95-5.74-6.05,0-8.15,2.01-8.15,5.49v.81h-8.31v-.78c0-7.36,4.93-11.11,16.43-11.11s16.29,3.64,16.29,11.59v7.39c0,4.73.36,9.1,1.43,13.16h-8.51c-.28-1.32-.5-2.74-.7-4.17Zm-10.86-.76c3.92,0,7.53-1.04,10.52-2.86-.14-1.85-.2-3.67-.2-5.37v-1.2l-7.73.81c-6.63.7-8.87,2.1-8.87,4.56v.17c0,2.43,2.01,3.89,6.27,3.89Z"/>
      <path class="cls-1" d="m126.07,30.65h22.03c10.02,0,15.45,4.2,15.45,13.04v.53c0,8.76-5.43,13.21-15.45,13.21h-12.99v14.08h-9.04V30.65Zm9.01,20.15h11.56c5.57,0,7.73-2.18,7.73-6.58v-.53c0-4.37-2.18-6.41-7.73-6.41h-11.56v13.52Z"/>
    </g>
    <g>
      <path class="cls-1" d="m0,96.05v-11.12h4.39c1.26,0,2.24.33,2.94.99.7.66,1.04,1.54,1.04,2.64,0,.76-.17,1.41-.51,1.95s-.82.94-1.46,1.22l2.36,4.32h-2.6l-2.11-3.94h-1.72v3.94H0Zm2.35-5.83h1.6c1.34,0,2-.55,2-1.66s-.67-1.71-2.01-1.71h-1.59v3.37Z"/>
      <path class="cls-1" d="m20.75,90.49c0,1.21-.23,2.24-.69,3.09-.46.85-1.08,1.5-1.86,1.95-.79.45-1.67.67-2.65.67s-1.87-.22-2.66-.67c-.79-.45-1.41-1.1-1.86-1.95-.46-.85-.68-1.88-.68-3.09s.23-2.24.68-3.09c.46-.85,1.08-1.5,1.86-1.95.79-.45,1.67-.67,2.66-.67s1.87.22,2.65.67c.79.45,1.41,1.1,1.86,1.95.46.85.69,1.88.69,3.09Zm-2.38,0c0-1.18-.26-2.08-.77-2.7-.51-.62-1.2-.93-2.05-.93s-1.54.31-2.05.93c-.51.62-.77,1.52-.77,2.7s.26,2.08.77,2.7c.51.62,1.2.93,2.05.93s1.54-.31,2.05-.93c.51-.62.77-1.52.77-2.7Z"/>
      <path class="cls-1" d="m33.22,90.49c0,1.21-.23,2.24-.69,3.09-.46.85-1.08,1.5-1.86,1.95s-1.67.67-2.65.67-1.87-.22-2.66-.67-1.41-1.1-1.86-1.95c-.46-.85-.68-1.88-.68-3.09s.23-2.24.68-3.09c.46-.85,1.08-1.5,1.86-1.95s1.67-.67,2.66-.67,1.87.22,2.65.67,1.41,1.1,1.86,1.95c.46.85.69,1.88.69,3.09Zm-2.38,0c0-1.18-.26-2.08-.77-2.7-.51-.62-1.2-.93-2.05-.93s-1.54.31-2.05.93c-.51.62-.77,1.52-.77,2.7s.26,2.08.77,2.7c.51.62,1.2.93,2.05.93s1.54-.31,2.05-.93c.51-.62.77-1.52.77-2.7Z"/>
      <path class="cls-1" d="m35.65,84.94h2.9l3.06,7.47h.13l3.06-7.47h2.9v11.12h-2.28v-7.23h-.09l-2.88,7.18h-1.55l-2.88-7.21h-.09v7.26h-2.28v-11.12Z"/>
      <path class="cls-1" d="m56.38,88.13c-.04-.44-.23-.78-.56-1.02-.33-.24-.78-.36-1.34-.36s-1.02.12-1.32.35c-.31.24-.46.53-.46.89,0,.4.16.7.51.9.35.2.77.36,1.25.47l1,.24c.64.15,1.22.36,1.72.63.5.27.9.63,1.18,1.06.29.43.43.96.43,1.58,0,1.02-.38,1.83-1.14,2.43-.76.6-1.82.9-3.17.9s-2.43-.31-3.23-.92-1.22-1.52-1.25-2.73h2.27c.04.56.26.98.66,1.26s.91.42,1.52.42,1.07-.13,1.43-.38c.36-.25.54-.58.54-.99,0-.38-.17-.67-.49-.87-.33-.2-.79-.38-1.4-.52l-1.21-.3c-.94-.22-1.68-.58-2.22-1.07-.54-.49-.81-1.14-.81-1.96,0-.67.18-1.26.54-1.77.36-.5.86-.9,1.5-1.18s1.36-.42,2.17-.42,1.55.14,2.16.42c.62.28,1.1.67,1.44,1.18.34.5.52,1.09.53,1.75h-2.25Z"/>
      <path class="cls-1" d="m66.88,96.05h-2.52l3.84-11.12h3.03l3.83,11.12h-2.52l-.82-2.54h-4.01l-.82,2.54Zm1.42-4.37h2.82l-1.37-4.21h-.09l-1.37,4.21Z"/>
      <path class="cls-1" d="m82.79,88.13c-.04-.44-.23-.78-.56-1.02-.33-.24-.78-.36-1.34-.36s-1.02.12-1.32.35c-.31.24-.46.53-.46.89,0,.4.16.7.51.9s.76.36,1.25.47l1,.24c.64.15,1.22.36,1.72.63.5.27.9.63,1.18,1.06.29.43.43.96.43,1.58,0,1.02-.39,1.83-1.14,2.43-.76.6-1.81.9-3.17.9s-2.43-.31-3.23-.92c-.8-.61-1.22-1.52-1.25-2.73h2.27c.04.56.26.98.66,1.26s.91.42,1.52.42,1.07-.13,1.43-.38c.36-.25.54-.58.54-.99,0-.38-.17-.67-.49-.87-.33-.2-.79-.38-1.4-.52l-1.21-.3c-.94-.22-1.68-.58-2.22-1.07-.54-.49-.81-1.14-.81-1.96,0-.67.18-1.26.54-1.77.36-.5.86-.9,1.5-1.18s1.36-.42,2.17-.42,1.55.14,2.16.42c.62.28,1.1.67,1.44,1.18.34.5.52,1.09.53,1.75h-2.25Z"/>
      <path class="cls-1" d="m93.3,96.05h-2.52l3.84-11.12h3.03l3.83,11.12h-2.52l-.82-2.54h-4.01l-.82,2.54Zm1.42-4.37h2.82l-1.37-4.21h-.09l-1.37,4.21Z"/>
      <path class="cls-1" d="m107.43,96.05v-11.12h4.39c.84,0,1.56.16,2.16.48.59.32,1.05.76,1.36,1.33.31.57.47,1.22.47,1.96s-.16,1.39-.48,1.95c-.32.56-.78,1-1.38,1.32-.6.32-1.33.47-2.19.47h-1.98v3.6h-2.35Zm2.35-5.49h1.6c.67,0,1.18-.17,1.51-.52.33-.35.5-.79.5-1.34s-.17-1-.5-1.34c-.33-.34-.84-.51-1.52-.51h-1.59v3.71Z"/>
      <path class="cls-1" d="m117.85,96.05v-11.12h4.39c1.26,0,2.24.33,2.94.99.7.66,1.04,1.54,1.04,2.64,0,.76-.17,1.41-.51,1.95s-.82.94-1.46,1.22l2.36,4.32h-2.6l-2.11-3.94h-1.72v3.94h-2.35Zm2.35-5.83h1.6c1.34,0,2-.55,2-1.66s-.67-1.71-2.01-1.71h-1.59v3.37Z"/>
      <path class="cls-1" d="m138.6,90.49c0,1.21-.23,2.24-.69,3.09-.46.85-1.08,1.5-1.86,1.95s-1.67.67-2.65.67-1.87-.22-2.66-.67-1.41-1.1-1.86-1.95c-.46-.85-.68-1.88-.68-3.09s.23-2.24.68-3.09c.46-.85,1.08-1.5,1.86-1.95s1.67-.67,2.66-.67,1.87.22,2.65.67,1.41,1.1,1.86,1.95c.46.85.69,1.88.69,3.09Zm-2.38,0c0-1.18-.26-2.08-.77-2.7-.51-.62-1.2-.93-2.05-.93s-1.54.31-2.05.93c-.51.62-.77,1.52-.77,2.7s.26,2.08.77,2.7c.51.62,1.2.93,2.05.93s1.54-.31,2.05-.93c.51-.62.77-1.52.77-2.7Z"/>
      <path class="cls-1" d="m144.97,96.05h-3.94v-11.12h3.97c1.12,0,2.08.22,2.89.66.81.44,1.43,1.08,1.86,1.91.43.83.65,1.82.65,2.97s-.22,2.15-.65,2.99c-.44.83-1.06,1.47-1.87,1.92s-1.78.67-2.91.67Zm-1.59-2.01h1.49c1.05,0,1.84-.28,2.38-.85.54-.56.81-1.47.81-2.71s-.27-2.13-.81-2.69c-.54-.56-1.33-.84-2.37-.84h-1.5v7.09Z"/>
      <path class="cls-1" d="m159.6,84.94h2.35v7.22c0,.81-.19,1.52-.58,2.13-.38.61-.92,1.08-1.61,1.42-.69.34-1.5.51-2.42.51s-1.73-.17-2.42-.51c-.69-.34-1.23-.81-1.61-1.42-.38-.61-.58-1.32-.58-2.13v-7.22h2.35v7.02c0,.63.21,1.16.62,1.57.41.41.96.62,1.64.62s1.23-.21,1.64-.62c.41-.41.62-.94.62-1.57v-7.02Z"/>
      <path class="cls-1" d="m174.3,88.83h-2.38c-.09-.61-.35-1.09-.78-1.44-.43-.35-.97-.52-1.61-.52-.86,0-1.55.32-2.07.95-.52.63-.78,1.53-.78,2.68s.26,2.09.78,2.71,1.21.93,2.05.93c.63,0,1.16-.16,1.59-.49.43-.33.71-.79.82-1.38h2.38c-.08.69-.33,1.33-.73,1.93-.4.6-.95,1.09-1.64,1.46-.69.37-1.51.56-2.46.56s-1.88-.22-2.66-.67-1.4-1.1-1.85-1.95c-.45-.85-.68-1.88-.68-3.09s.23-2.24.68-3.09c.46-.85,1.07-1.5,1.86-1.95s1.66-.67,2.64-.67c.86,0,1.63.16,2.32.47.69.32,1.25.78,1.69,1.38.44.6.71,1.33.81,2.19Z"/>
      <path class="cls-1" d="m175.94,86.87v-1.94h9.13v1.94h-3.4v9.18h-2.32v-9.18h-3.4Z"/>
    </g>
    <polygon class="cls-1" points="0 0 0 21.25 9.15 21.25 9.15 9.15 175.91 9.15 175.91 62.36 164.34 62.36 164.34 71.52 185.07 71.52 185.07 0 0 0"/>
  </g>
</svg>